<svg width="249" height="53" viewBox="0 0 249 53" fill="none" xmlns="http://www.w3.org/2000/svg">
<path d="M53.1838 30.4774C61.5999 30.4774 68.4226 23.6548 68.4226 15.2387C68.4226 6.82259 61.5999 0 53.1838 0C44.7677 0 37.9453 6.82259 37.9453 15.2387C37.9453 23.6548 44.7677 30.4774 53.1838 30.4774Z" fill="#DA0000"/>
<path d="M16.0026 52.8681C20.2143 52.8681 23.6286 49.4538 23.6286 45.2421C23.6286 41.0304 20.2143 37.6162 16.0026 37.6162C11.7909 37.6162 8.37695 41.0304 8.37695 45.2421C8.37695 49.4538 11.7909 52.8681 16.0026 52.8681Z" fill="#DA0000"/>
<path d="M6.03236 38.0904C9.36388 38.0904 12.0644 35.3897 12.0644 32.0581C12.0644 28.7266 9.36388 26.0259 6.03236 26.0259C2.70084 26.0259 0 28.7266 0 32.0581C0 35.3897 2.70084 38.0904 6.03236 38.0904Z" fill="#DA0000"/>
<path d="M35.0474 47.9286C40.9394 47.9286 45.7157 43.1522 45.7157 37.2602C45.7157 31.3682 40.9394 26.5918 35.0474 26.5918C29.1554 26.5918 24.3789 31.3682 24.3789 37.2602C24.3789 43.1522 29.1554 47.9286 35.0474 47.9286Z" fill="#DA0000"/>
<path d="M132.157 19.5984H113.81C113.733 19.5984 113.659 19.629 113.605 19.6833C113.55 19.7377 113.52 19.8114 113.52 19.8882V47.3758C113.52 47.4527 113.55 47.5264 113.605 47.5807C113.659 47.635 113.733 47.6656 113.81 47.6656H118.63C118.669 47.6674 118.708 47.6612 118.745 47.6474C118.782 47.6337 118.816 47.6126 118.844 47.5855C118.872 47.5584 118.895 47.5259 118.91 47.4898C118.925 47.4538 118.933 47.415 118.933 47.3758V37.8796V33.4674V24.037H131.248C137.201 24.037 139.256 25.4463 139.256 27.8829V29.5688C139.256 32.0449 137.201 33.5201 131.248 33.5201H122.028C121.982 33.5198 121.937 33.5305 121.895 33.5513C121.854 33.5721 121.819 33.6025 121.792 33.6399C121.765 33.6772 121.747 33.7205 121.74 33.7661C121.733 33.8117 121.737 33.8583 121.752 33.902L122.041 34.8108C122.338 35.7166 122.912 36.5058 123.683 37.0662C124.454 37.6266 125.382 37.9297 126.335 37.9323H132.183C141.758 37.9323 144.696 34.3103 144.696 29.8849V27.5668C144.669 23.2336 141.732 19.5984 132.157 19.5984ZM108.936 19.5984H104.129C104.09 19.5967 104.051 19.6028 104.014 19.6166C103.977 19.6304 103.944 19.6514 103.916 19.6785C103.887 19.7056 103.865 19.7382 103.849 19.7742C103.834 19.8102 103.826 19.849 103.826 19.8882V38.8279C103.826 42.2655 101.745 43.9514 93.1973 43.9514C84.6494 43.9514 82.5156 42.2655 82.5156 38.8279V19.8882C82.5156 19.8114 82.485 19.7377 82.4307 19.6833C82.3764 19.629 82.3027 19.5984 82.2259 19.5984H77.4054C77.3663 19.5967 77.327 19.6028 77.2903 19.6166C77.2536 19.6304 77.2202 19.6514 77.1919 19.6785C77.1636 19.7056 77.1411 19.7382 77.1257 19.7742C77.1103 19.8102 77.1025 19.849 77.1025 19.8882V39.6445C77.1025 44.1094 80.145 48.3241 93.1973 48.3241C106.25 48.3241 109.239 44.1094 109.239 39.6445V19.8882C109.239 19.849 109.232 19.8102 109.216 19.7742C109.201 19.7382 109.178 19.7056 109.15 19.6785C109.122 19.6514 109.088 19.6304 109.052 19.6166C109.015 19.6028 108.976 19.5967 108.936 19.5984ZM211.919 43.306H190.675V35.2454H209.72C209.76 35.2454 209.799 35.2376 209.836 35.2224C209.873 35.2072 209.906 35.1848 209.934 35.1567C209.962 35.1286 209.984 35.0952 210 35.0584C210.015 35.0217 210.023 34.9823 210.023 34.9425V31.3732C210.023 31.2929 209.991 31.2158 209.934 31.159C209.877 31.1022 209.8 31.0703 209.72 31.0703H190.675V24.037H211.05C211.127 24.037 211.201 24.0065 211.255 23.9522C211.309 23.8978 211.34 23.8241 211.34 23.7473V19.8882C211.34 19.8114 211.309 19.7377 211.255 19.6833C211.201 19.629 211.127 19.5984 211.05 19.5984H185.564C185.488 19.5984 185.414 19.629 185.36 19.6833C185.305 19.7377 185.275 19.8114 185.275 19.8882V47.3758C185.275 47.4527 185.305 47.5264 185.36 47.5807C185.414 47.635 185.488 47.6656 185.564 47.6656H211.906C211.983 47.6656 212.057 47.635 212.111 47.5807C212.166 47.5264 212.196 47.4527 212.196 47.3758V43.5431C212.196 43.4685 212.167 43.3967 212.116 43.3427C212.064 43.2887 211.994 43.2567 211.919 43.2533V43.306ZM168.034 19.5984H149.687C149.61 19.5984 149.537 19.629 149.482 19.6833C149.428 19.7377 149.397 19.8114 149.397 19.8882V47.3758C149.397 47.4527 149.428 47.5264 149.482 47.5807C149.537 47.635 149.61 47.6656 149.687 47.6656H154.508C154.585 47.6656 154.658 47.635 154.713 47.5807C154.767 47.5264 154.797 47.4527 154.797 47.3758V37.8796V33.4674V24.037H167.125C173.078 24.037 175.133 25.4463 175.133 27.8829V29.5688C175.133 32.0449 173.078 33.5201 167.125 33.5201H157.906C157.86 33.5198 157.814 33.5305 157.773 33.5513C157.732 33.5721 157.696 33.6025 157.669 33.6399C157.642 33.6772 157.624 33.7205 157.618 33.7661C157.611 33.8117 157.614 33.8583 157.629 33.902L157.919 34.8108C158.213 35.7177 158.788 36.508 159.559 37.0687C160.33 37.6294 161.259 37.9317 162.213 37.9323H168.061C177.636 37.9323 180.573 34.3103 180.573 29.8849V27.5668C180.547 23.2336 177.609 19.5984 168.034 19.5984ZM248.851 47.1782L240.408 37.4977C246.177 36.444 248.087 33.4015 248.087 29.8322V27.5668C248.087 23.2336 245.15 19.5984 235.575 19.5984H217.227C217.15 19.5984 217.077 19.629 217.022 19.6833C216.968 19.7377 216.938 19.8114 216.938 19.8882V47.3758C216.938 47.4527 216.968 47.5264 217.022 47.5807C217.077 47.635 217.15 47.6656 217.227 47.6656H222.048C222.125 47.6656 222.199 47.635 222.253 47.5807C222.307 47.5264 222.338 47.4527 222.338 47.3758V37.8796V33.4674V24.037H234.665C240.606 24.037 242.673 25.4463 242.673 27.8829V29.5688C242.673 32.0449 240.606 33.5201 234.665 33.5201H225.446C225.4 33.5198 225.354 33.5305 225.313 33.5513C225.272 33.5721 225.237 33.6025 225.21 33.6399C225.182 33.6772 225.165 33.7205 225.158 33.7661C225.151 33.8117 225.155 33.8583 225.169 33.902L225.459 34.8108C225.754 35.7177 226.328 36.508 227.099 37.0687C227.871 37.6294 228.799 37.9317 229.753 37.9323H234.152L242.568 47.6261C242.597 47.656 242.632 47.6796 242.671 47.6955C242.709 47.7114 242.75 47.7191 242.792 47.7183H248.666C248.734 47.7287 248.802 47.7151 248.861 47.6798C248.919 47.6446 248.963 47.59 248.985 47.5255C249.007 47.4611 249.005 47.391 248.981 47.3275C248.956 47.264 248.91 47.2112 248.851 47.1782Z" fill="white"/>
</svg>
